%FSLAX24Y24*%
%MOIN*%
G70*
G01*
G75*
G04 Layer_Physical_Order=2*
G04 Layer_Color=16711680*
%ADD10C,0.0300*%
%ADD11C,0.0630*%
%ADD12C,0.0551*%
%ADD13C,0.0591*%
%ADD14R,0.0591X0.0591*%
%ADD15C,0.0532*%
%ADD16R,0.0532X0.0532*%
%ADD17O,0.0394X0.0787*%
%ADD18O,0.0394X0.0787*%
%ADD19C,0.0591*%
%ADD20R,0.0591X0.0591*%
G36*
X52500Y24000D02*
X20000D01*
Y39000D01*
X52500D01*
Y24000D01*
D02*
G37*
%LPC*%
G36*
X51000Y28519D02*
X50866Y28502D01*
X50740Y28450D01*
X50633Y28367D01*
X50550Y28260D01*
X50498Y28134D01*
X50481Y28000D01*
X50498Y27866D01*
X50550Y27740D01*
X50633Y27633D01*
X50647Y27622D01*
Y26500D01*
X50659Y26409D01*
X50694Y26323D01*
X50750Y26250D01*
X51023Y25977D01*
X51037Y25876D01*
X51085Y25760D01*
X51161Y25661D01*
X51260Y25585D01*
X51376Y25537D01*
X51500Y25520D01*
X51624Y25537D01*
X51740Y25585D01*
X51839Y25661D01*
X51915Y25760D01*
X51963Y25876D01*
X51980Y26000D01*
X51963Y26124D01*
X51915Y26240D01*
X51839Y26339D01*
X51740Y26415D01*
X51624Y26463D01*
X51523Y26477D01*
X51353Y26646D01*
Y27622D01*
X51367Y27633D01*
X51450Y27740D01*
X51502Y27866D01*
X51519Y28000D01*
X51502Y28134D01*
X51450Y28260D01*
X51367Y28367D01*
X51260Y28450D01*
X51134Y28502D01*
X51000Y28519D01*
D02*
G37*
G36*
X21500Y29519D02*
X21366Y29502D01*
X21240Y29450D01*
X21133Y29367D01*
X21050Y29260D01*
X20998Y29134D01*
X20981Y29000D01*
X20990Y28930D01*
X20585Y28525D01*
X20529Y28452D01*
X20494Y28367D01*
X20482Y28275D01*
Y26165D01*
X20494Y26074D01*
X20521Y26008D01*
X20520Y26000D01*
X20537Y25876D01*
X20585Y25760D01*
X20661Y25661D01*
X20760Y25585D01*
X20876Y25537D01*
X21000Y25520D01*
X21124Y25537D01*
X21240Y25585D01*
X21339Y25661D01*
X21415Y25760D01*
X21463Y25876D01*
X21480Y26000D01*
X21463Y26124D01*
X21415Y26240D01*
X21339Y26339D01*
X21240Y26415D01*
X21188Y26437D01*
Y28129D01*
X21545Y28487D01*
X21634Y28498D01*
X21760Y28550D01*
X21867Y28633D01*
X21950Y28740D01*
X22002Y28866D01*
X22019Y29000D01*
X22002Y29134D01*
X21950Y29260D01*
X21867Y29367D01*
X21760Y29450D01*
X21634Y29502D01*
X21500Y29519D01*
D02*
G37*
G36*
X49500Y33000D02*
X49371Y32983D01*
X49250Y32933D01*
X49147Y32853D01*
X49067Y32750D01*
X49017Y32629D01*
X49000Y32500D01*
X49017Y32371D01*
X49067Y32250D01*
X49147Y32147D01*
X49250Y32067D01*
X49353Y32025D01*
Y31975D01*
X49250Y31933D01*
X49147Y31853D01*
X49147Y31853D01*
X48821D01*
X48740Y31915D01*
X48624Y31963D01*
X48500Y31980D01*
X48376Y31963D01*
X48260Y31915D01*
X48161Y31839D01*
X48085Y31740D01*
X48037Y31624D01*
X48020Y31500D01*
X48037Y31376D01*
X48085Y31260D01*
X48161Y31161D01*
X48260Y31085D01*
X48376Y31037D01*
X48500Y31020D01*
X48624Y31037D01*
X48740Y31085D01*
X48821Y31147D01*
X49147D01*
X49147Y31147D01*
X49250Y31067D01*
X49306Y31044D01*
X49296Y30995D01*
X49005D01*
Y30853D01*
X48500D01*
X48500Y30853D01*
X48409Y30841D01*
X48323Y30806D01*
X48250Y30750D01*
X47396Y29895D01*
X47346Y29898D01*
X47283Y29980D01*
X47200Y30043D01*
X47104Y30083D01*
X47000Y30097D01*
X46896Y30083D01*
X46895Y30083D01*
X46853Y30111D01*
Y30400D01*
X46841Y30491D01*
X46806Y30577D01*
X46750Y30650D01*
X45650Y31750D01*
X45577Y31806D01*
X45491Y31841D01*
X45400Y31853D01*
X44821D01*
X44740Y31915D01*
X44624Y31963D01*
X44500Y31980D01*
X44376Y31963D01*
X44260Y31915D01*
X44161Y31839D01*
X44085Y31740D01*
X44037Y31624D01*
X44020Y31500D01*
X44037Y31376D01*
X44085Y31260D01*
X44161Y31161D01*
X44260Y31085D01*
X44376Y31037D01*
X44500Y31020D01*
X44624Y31037D01*
X44740Y31085D01*
X44821Y31147D01*
X45254D01*
X46147Y30254D01*
Y29970D01*
X46156Y29901D01*
X46153Y29897D01*
X46113Y29800D01*
X46100Y29697D01*
Y29303D01*
X46113Y29200D01*
X46153Y29103D01*
X46217Y29020D01*
X46300Y28956D01*
X46396Y28917D01*
X46500Y28903D01*
X46604Y28917D01*
X46700Y28956D01*
X46750Y28995D01*
X46800Y28956D01*
X46896Y28917D01*
X47000Y28903D01*
X47104Y28917D01*
X47200Y28956D01*
X47283Y29020D01*
X47347Y29103D01*
X47365Y29147D01*
X47500D01*
X47591Y29159D01*
X47677Y29194D01*
X47750Y29250D01*
X47750Y29250D01*
X47750Y29250D01*
X48646Y30147D01*
X49005D01*
Y30005D01*
X49995D01*
Y30995D01*
X49704D01*
X49694Y31044D01*
X49750Y31067D01*
X49853Y31147D01*
X49933Y31250D01*
X49983Y31371D01*
X50000Y31500D01*
X49983Y31629D01*
X49933Y31750D01*
X49853Y31853D01*
X49750Y31933D01*
X49647Y31975D01*
Y32025D01*
X49750Y32067D01*
X49853Y32147D01*
X49933Y32250D01*
X49983Y32371D01*
X50000Y32500D01*
X49983Y32629D01*
X49933Y32750D01*
X49853Y32853D01*
X49750Y32933D01*
X49629Y32983D01*
X49500Y33000D01*
D02*
G37*
G36*
X34000Y34480D02*
X33876Y34463D01*
X33760Y34415D01*
X33661Y34339D01*
X33585Y34240D01*
X33537Y34124D01*
X33520Y34000D01*
X33537Y33876D01*
X33585Y33760D01*
X33661Y33661D01*
X33760Y33585D01*
X33876Y33537D01*
X33983Y33523D01*
X34008Y33479D01*
X33996Y33450D01*
X33534D01*
Y32518D01*
X34447D01*
Y29946D01*
X33977Y29477D01*
X33876Y29463D01*
X33760Y29415D01*
X33661Y29339D01*
X33585Y29240D01*
X33537Y29124D01*
X33520Y29000D01*
X33537Y28876D01*
X33585Y28760D01*
X33661Y28661D01*
X33760Y28585D01*
X33876Y28537D01*
X34000Y28520D01*
X34124Y28537D01*
X34240Y28585D01*
X34339Y28661D01*
X34415Y28760D01*
X34463Y28876D01*
X34477Y28977D01*
X35050Y29550D01*
X35106Y29623D01*
X35141Y29709D01*
X35153Y29800D01*
X35153Y29800D01*
X35153Y29800D01*
Y29800D01*
Y33211D01*
X35141Y33302D01*
X35106Y33387D01*
X35050Y33460D01*
X34475Y34035D01*
X34463Y34124D01*
X34415Y34240D01*
X34339Y34339D01*
X34240Y34415D01*
X34124Y34463D01*
X34000Y34480D01*
D02*
G37*
G36*
X36500Y25853D02*
X36440D01*
X36349Y25841D01*
X36264Y25806D01*
X36191Y25750D01*
X36135Y25677D01*
X36099Y25591D01*
X36087Y25500D01*
X36099Y25409D01*
X36135Y25323D01*
X36191Y25250D01*
X36264Y25194D01*
X36349Y25159D01*
X36440Y25147D01*
X36500D01*
X36591Y25159D01*
X36677Y25194D01*
X36750Y25250D01*
X36806Y25323D01*
X36841Y25409D01*
X36853Y25500D01*
X36841Y25591D01*
X36806Y25677D01*
X36750Y25750D01*
X36677Y25806D01*
X36591Y25841D01*
X36500Y25853D01*
D02*
G37*
G36*
X27000Y26019D02*
X26866Y26002D01*
X26740Y25950D01*
X26633Y25867D01*
X26550Y25760D01*
X26498Y25634D01*
X26481Y25500D01*
X26498Y25366D01*
X26550Y25240D01*
X26633Y25133D01*
X26740Y25050D01*
X26866Y24998D01*
X27000Y24981D01*
X27018Y24983D01*
X27450Y24550D01*
X27450Y24550D01*
X27523Y24494D01*
X27609Y24459D01*
X27700Y24447D01*
X29300D01*
X29391Y24459D01*
X29477Y24494D01*
X29513Y24522D01*
X29624Y24537D01*
X29740Y24585D01*
X29839Y24661D01*
X29915Y24760D01*
X29963Y24876D01*
X29980Y25000D01*
X29963Y25124D01*
X29915Y25240D01*
X29839Y25339D01*
X29740Y25415D01*
X29624Y25463D01*
X29500Y25480D01*
X29376Y25463D01*
X29260Y25415D01*
X29161Y25339D01*
X29085Y25240D01*
X29049Y25153D01*
X27846D01*
X27517Y25482D01*
X27519Y25500D01*
X27502Y25634D01*
X27450Y25760D01*
X27367Y25867D01*
X27260Y25950D01*
X27134Y26002D01*
X27000Y26019D01*
D02*
G37*
G36*
X44500D02*
X44366Y26002D01*
X44240Y25950D01*
X44133Y25867D01*
X44050Y25760D01*
X43998Y25634D01*
X43981Y25500D01*
X43983Y25482D01*
X43854Y25353D01*
X43321D01*
X43240Y25415D01*
X43124Y25463D01*
X43000Y25480D01*
X42876Y25463D01*
X42760Y25415D01*
X42661Y25339D01*
X42585Y25240D01*
X42537Y25124D01*
X42520Y25000D01*
X42537Y24876D01*
X42585Y24760D01*
X42661Y24661D01*
X42760Y24585D01*
X42876Y24537D01*
X43000Y24520D01*
X43124Y24537D01*
X43240Y24585D01*
X43321Y24647D01*
X44000D01*
X44091Y24659D01*
X44177Y24694D01*
X44250Y24750D01*
X44482Y24983D01*
X44500Y24981D01*
X44634Y24998D01*
X44760Y25050D01*
X44867Y25133D01*
X44950Y25240D01*
X45002Y25366D01*
X45019Y25500D01*
X45002Y25634D01*
X44950Y25760D01*
X44867Y25867D01*
X44760Y25950D01*
X44634Y26002D01*
X44500Y26019D01*
D02*
G37*
G36*
X35500D02*
X35366Y26002D01*
X35240Y25950D01*
X35133Y25867D01*
X35050Y25760D01*
X34998Y25634D01*
X34981Y25500D01*
X34983Y25482D01*
X34854Y25353D01*
X34321D01*
X34240Y25415D01*
X34124Y25463D01*
X34000Y25480D01*
X33876Y25463D01*
X33760Y25415D01*
X33661Y25339D01*
X33585Y25240D01*
X33537Y25124D01*
X33520Y25000D01*
X33537Y24876D01*
X33585Y24760D01*
X33661Y24661D01*
X33760Y24585D01*
X33876Y24537D01*
X34000Y24520D01*
X34124Y24537D01*
X34240Y24585D01*
X34321Y24647D01*
X35000D01*
X35091Y24659D01*
X35177Y24694D01*
X35250Y24750D01*
X35482Y24983D01*
X35500Y24981D01*
X35634Y24998D01*
X35760Y25050D01*
X35867Y25133D01*
X35950Y25240D01*
X36002Y25366D01*
X36019Y25500D01*
X36002Y25634D01*
X35950Y25760D01*
X35867Y25867D01*
X35760Y25950D01*
X35634Y26002D01*
X35500Y26019D01*
D02*
G37*
G36*
X35700Y38653D02*
X34300D01*
X34209Y38641D01*
X34123Y38606D01*
X34050Y38550D01*
X33977Y38477D01*
X33876Y38463D01*
X33760Y38415D01*
X33661Y38339D01*
X33585Y38240D01*
X33537Y38124D01*
X33520Y38000D01*
X33537Y37876D01*
X33585Y37760D01*
X33661Y37661D01*
X33760Y37585D01*
X33876Y37537D01*
X34000Y37520D01*
X34124Y37537D01*
X34240Y37585D01*
X34339Y37661D01*
X34415Y37760D01*
X34463Y37876D01*
X34473Y37947D01*
X35554D01*
X35983Y37518D01*
X35981Y37500D01*
X35998Y37366D01*
X36050Y37240D01*
X36133Y37133D01*
X36240Y37050D01*
X36366Y36998D01*
X36500Y36981D01*
X36634Y36998D01*
X36760Y37050D01*
X36867Y37133D01*
X36950Y37240D01*
X37002Y37366D01*
X37019Y37500D01*
X37002Y37634D01*
X36950Y37760D01*
X36867Y37867D01*
X36760Y37950D01*
X36634Y38002D01*
X36500Y38019D01*
X36482Y38017D01*
X35950Y38550D01*
X35877Y38606D01*
X35791Y38641D01*
X35700Y38653D01*
D02*
G37*
G36*
X47500Y37480D02*
X47376Y37463D01*
X47260Y37415D01*
X47161Y37339D01*
X47085Y37240D01*
X47037Y37124D01*
X47020Y37000D01*
X47037Y36876D01*
X47085Y36760D01*
X47161Y36661D01*
X47260Y36585D01*
X47376Y36537D01*
X47500Y36520D01*
X47624Y36537D01*
X47740Y36585D01*
X47839Y36661D01*
X47915Y36760D01*
X47963Y36876D01*
X47980Y37000D01*
X47963Y37124D01*
X47915Y37240D01*
X47839Y37339D01*
X47740Y37415D01*
X47624Y37463D01*
X47500Y37480D01*
D02*
G37*
G36*
X44800Y38553D02*
X43200D01*
X43109Y38541D01*
X43023Y38506D01*
X42987Y38478D01*
X42876Y38463D01*
X42760Y38415D01*
X42661Y38339D01*
X42585Y38240D01*
X42537Y38124D01*
X42520Y38000D01*
X42537Y37876D01*
X42585Y37760D01*
X42661Y37661D01*
X42760Y37585D01*
X42876Y37537D01*
X43000Y37520D01*
X43124Y37537D01*
X43240Y37585D01*
X43339Y37661D01*
X43415Y37760D01*
X43451Y37847D01*
X44654D01*
X44983Y37518D01*
X44981Y37500D01*
X44998Y37366D01*
X45050Y37240D01*
X45133Y37133D01*
X45240Y37050D01*
X45366Y36998D01*
X45500Y36981D01*
X45634Y36998D01*
X45760Y37050D01*
X45867Y37133D01*
X45950Y37240D01*
X46002Y37366D01*
X46019Y37500D01*
X46002Y37634D01*
X45950Y37760D01*
X45867Y37867D01*
X45760Y37950D01*
X45634Y38002D01*
X45500Y38019D01*
X45482Y38017D01*
X45050Y38450D01*
X44977Y38506D01*
X44891Y38541D01*
X44800Y38553D01*
D02*
G37*
G36*
X32500Y38480D02*
X32376Y38463D01*
X32260Y38415D01*
X32161Y38339D01*
X32085Y38240D01*
X32037Y38124D01*
X32020Y38000D01*
X32037Y37876D01*
X32085Y37760D01*
X32161Y37661D01*
X32260Y37585D01*
X32376Y37537D01*
X32500Y37520D01*
X32624Y37537D01*
X32740Y37585D01*
X32839Y37661D01*
X32915Y37760D01*
X32963Y37876D01*
X32980Y38000D01*
X32963Y38124D01*
X32915Y38240D01*
X32839Y38339D01*
X32740Y38415D01*
X32624Y38463D01*
X32500Y38480D01*
D02*
G37*
G36*
X31000D02*
X30876Y38463D01*
X30760Y38415D01*
X30661Y38339D01*
X30585Y38240D01*
X30537Y38124D01*
X30523Y38023D01*
X29554Y37053D01*
X28341D01*
X28325Y37100D01*
X28367Y37133D01*
X28378Y37147D01*
X29000D01*
X29091Y37159D01*
X29177Y37194D01*
X29250Y37250D01*
X29523Y37523D01*
X29624Y37537D01*
X29740Y37585D01*
X29839Y37661D01*
X29915Y37760D01*
X29963Y37876D01*
X29980Y38000D01*
X29963Y38124D01*
X29915Y38240D01*
X29839Y38339D01*
X29740Y38415D01*
X29624Y38463D01*
X29500Y38480D01*
X29376Y38463D01*
X29260Y38415D01*
X29161Y38339D01*
X29085Y38240D01*
X29037Y38124D01*
X29023Y38023D01*
X28854Y37853D01*
X28378D01*
X28367Y37867D01*
X28260Y37950D01*
X28134Y38002D01*
X28000Y38019D01*
X27866Y38002D01*
X27740Y37950D01*
X27633Y37867D01*
X27550Y37760D01*
X27498Y37634D01*
X27481Y37500D01*
X27498Y37366D01*
X27550Y37240D01*
X27633Y37133D01*
X27740Y37050D01*
X27851Y37004D01*
X27857Y36955D01*
X27850Y36950D01*
X24155Y33254D01*
X24099Y33181D01*
X24064Y33096D01*
X24052Y33005D01*
Y32133D01*
X24052Y32133D01*
X24052D01*
X24064Y32041D01*
X24099Y31956D01*
X24155Y31883D01*
X24697Y31341D01*
Y30953D01*
X24697Y30953D01*
X24697Y30953D01*
X22346D01*
X21800Y31500D01*
X21800Y31500D01*
X21783Y31629D01*
X21733Y31750D01*
X21653Y31853D01*
X21550Y31933D01*
X21429Y31983D01*
X21300Y32000D01*
X21171Y31983D01*
X21050Y31933D01*
X20947Y31853D01*
X20867Y31750D01*
X20817Y31629D01*
X20800Y31500D01*
X20817Y31371D01*
X20867Y31250D01*
X20947Y31147D01*
X21050Y31067D01*
X21171Y31017D01*
X21300Y31000D01*
X21300Y31000D01*
X21950Y30350D01*
X21950Y30350D01*
X21950D01*
X21950Y30350D01*
X21950D01*
X21950Y30350D01*
Y30350D01*
Y30350D01*
D01*
D01*
X21950D01*
Y30350D01*
X22023Y30294D01*
X22109Y30259D01*
X22200Y30247D01*
X24697D01*
X24697Y30247D01*
X24800Y30167D01*
X24921Y30117D01*
X25050Y30100D01*
X25179Y30117D01*
X25300Y30167D01*
X25403Y30247D01*
X25483Y30350D01*
X25533Y30471D01*
X25550Y30600D01*
X25533Y30729D01*
X25483Y30850D01*
X25403Y30953D01*
X25403Y30953D01*
Y31487D01*
X25391Y31579D01*
X25356Y31664D01*
X25300Y31737D01*
X25164Y31873D01*
X25179Y31917D01*
X25300Y31967D01*
X25345Y32002D01*
X29267D01*
X29359Y32014D01*
X29444Y32049D01*
X29517Y32105D01*
X29922Y32511D01*
X30000Y32500D01*
X30129Y32517D01*
X30250Y32567D01*
X30353Y32647D01*
X30433Y32750D01*
X30475Y32853D01*
X30525D01*
X30567Y32750D01*
X30647Y32647D01*
X30647Y32647D01*
Y31146D01*
X30000Y30500D01*
X30000Y30500D01*
X29871Y30483D01*
X29750Y30433D01*
X29647Y30353D01*
X29567Y30250D01*
X29517Y30129D01*
X29500Y30000D01*
X29517Y29871D01*
X29567Y29750D01*
X29647Y29647D01*
X29647Y29647D01*
Y29600D01*
X29659Y29509D01*
X29662Y29501D01*
X29664Y29497D01*
X29629Y29462D01*
X29624Y29463D01*
X29500Y29480D01*
X29376Y29463D01*
X29260Y29415D01*
X29161Y29339D01*
X29085Y29240D01*
X29037Y29124D01*
X29020Y29000D01*
X29037Y28876D01*
X29085Y28760D01*
X29147Y28679D01*
Y28500D01*
X29147Y28500D01*
X29147D01*
X29159Y28409D01*
X29194Y28323D01*
X29250Y28250D01*
X30402Y27099D01*
X30382Y27053D01*
X25700D01*
X25609Y27041D01*
X25523Y27006D01*
X25450Y26950D01*
X25450Y26950D01*
X24977Y26477D01*
X24876Y26463D01*
X24760Y26415D01*
X24661Y26339D01*
X24585Y26240D01*
X24537Y26124D01*
X24520Y26000D01*
X24537Y25876D01*
X24585Y25760D01*
X24661Y25661D01*
X24760Y25585D01*
X24876Y25537D01*
X25000Y25520D01*
X25124Y25537D01*
X25240Y25585D01*
X25339Y25661D01*
X25415Y25760D01*
X25463Y25876D01*
X25477Y25977D01*
X25846Y26347D01*
X35900D01*
X35991Y26359D01*
X36077Y26394D01*
X36150Y26450D01*
X38250Y28550D01*
X38250Y28550D01*
X38306Y28623D01*
X38341Y28709D01*
X38353Y28800D01*
Y29647D01*
X38353Y29647D01*
X38433Y29750D01*
X38475Y29853D01*
X38525D01*
X38567Y29750D01*
X38647Y29647D01*
X38750Y29567D01*
X38871Y29517D01*
X39000Y29500D01*
X39129Y29517D01*
X39250Y29567D01*
X39353Y29647D01*
X39433Y29750D01*
X39475Y29853D01*
X39525D01*
X39567Y29750D01*
X39647Y29647D01*
X39750Y29567D01*
X39871Y29517D01*
X40000Y29500D01*
X40129Y29517D01*
X40250Y29567D01*
X40353Y29647D01*
X40433Y29750D01*
X40475Y29853D01*
X40525D01*
X40567Y29750D01*
X40647Y29647D01*
X40750Y29567D01*
X40871Y29517D01*
X41000Y29500D01*
X41129Y29517D01*
X41250Y29567D01*
X41353Y29647D01*
X41433Y29750D01*
X41475Y29853D01*
X41525D01*
X41567Y29750D01*
X41647Y29647D01*
X41750Y29567D01*
X41871Y29517D01*
X42000Y29500D01*
X42000Y29500D01*
X42523Y28977D01*
X42537Y28876D01*
X42585Y28760D01*
X42661Y28661D01*
X42760Y28585D01*
X42876Y28537D01*
X43000Y28520D01*
X43124Y28537D01*
X43240Y28585D01*
X43339Y28661D01*
X43415Y28760D01*
X43463Y28876D01*
X43480Y29000D01*
X43463Y29124D01*
X43415Y29240D01*
X43339Y29339D01*
X43240Y29415D01*
X43124Y29463D01*
X43023Y29477D01*
X42500Y30000D01*
X42500Y30000D01*
X42483Y30129D01*
X42433Y30250D01*
X42353Y30353D01*
X42250Y30433D01*
X42129Y30483D01*
X42000Y30500D01*
X41871Y30483D01*
X41750Y30433D01*
X41647Y30353D01*
X41567Y30250D01*
X41525Y30147D01*
X41475D01*
X41433Y30250D01*
X41353Y30353D01*
X41250Y30433D01*
X41129Y30483D01*
X41000Y30500D01*
X40871Y30483D01*
X40750Y30433D01*
X40647Y30353D01*
X40567Y30250D01*
X40525Y30147D01*
X40475D01*
X40433Y30250D01*
X40353Y30353D01*
X40250Y30433D01*
X40129Y30483D01*
X40000Y30500D01*
X39871Y30483D01*
X39750Y30433D01*
X39647Y30353D01*
X39567Y30250D01*
X39525Y30147D01*
X39475D01*
X39433Y30250D01*
X39353Y30353D01*
X39250Y30433D01*
X39129Y30483D01*
X39000Y30500D01*
X38871Y30483D01*
X38750Y30433D01*
X38647Y30353D01*
X38567Y30250D01*
X38525Y30147D01*
X38475D01*
X38433Y30250D01*
X38353Y30353D01*
X38250Y30433D01*
X38129Y30483D01*
X38000Y30500D01*
X37871Y30483D01*
X37750Y30433D01*
X37647Y30353D01*
X37567Y30250D01*
X37525Y30147D01*
X37475D01*
X37433Y30250D01*
X37353Y30353D01*
X37250Y30433D01*
X37129Y30483D01*
X37000Y30500D01*
X36871Y30483D01*
X36750Y30433D01*
X36647Y30353D01*
X36567Y30250D01*
X36544Y30194D01*
X36495Y30204D01*
Y30495D01*
X36353D01*
Y31854D01*
X37000Y32500D01*
X37000Y32500D01*
X37129Y32517D01*
X37250Y32567D01*
X37353Y32647D01*
X37433Y32750D01*
X37475Y32853D01*
X37525D01*
X37567Y32750D01*
X37647Y32647D01*
X37750Y32567D01*
X37871Y32517D01*
X38000Y32500D01*
X38129Y32517D01*
X38250Y32567D01*
X38353Y32647D01*
X38433Y32750D01*
X38483Y32871D01*
X38500Y33000D01*
X38483Y33129D01*
X38433Y33250D01*
X38353Y33353D01*
X38250Y33433D01*
X38129Y33483D01*
X38000Y33500D01*
X37871Y33483D01*
X37750Y33433D01*
X37647Y33353D01*
X37567Y33250D01*
X37525Y33147D01*
X37475D01*
X37433Y33250D01*
X37353Y33353D01*
X37250Y33433D01*
X37129Y33483D01*
X37000Y33500D01*
X36871Y33483D01*
X36750Y33433D01*
X36647Y33353D01*
X36567Y33250D01*
X36525Y33147D01*
X36475D01*
X36433Y33250D01*
X36353Y33353D01*
X36250Y33433D01*
X36129Y33483D01*
X36000Y33500D01*
X35871Y33483D01*
X35750Y33433D01*
X35647Y33353D01*
X35567Y33250D01*
X35517Y33129D01*
X35500Y33000D01*
X35517Y32871D01*
X35567Y32750D01*
X35647Y32647D01*
X35750Y32567D01*
X35871Y32517D01*
X35945Y32508D01*
X35961Y32460D01*
X35750Y32250D01*
X35694Y32177D01*
X35659Y32091D01*
X35647Y32000D01*
Y30495D01*
X35505D01*
Y29505D01*
X36495D01*
Y29796D01*
X36544Y29806D01*
X36567Y29750D01*
X36647Y29647D01*
X36647Y29647D01*
Y28846D01*
X35454Y27653D01*
X31666D01*
Y28450D01*
X31546D01*
X31541Y28491D01*
X31506Y28577D01*
X31450Y28650D01*
X30396Y29703D01*
X30433Y29750D01*
X30475Y29853D01*
X30525D01*
X30567Y29750D01*
X30647Y29647D01*
X30750Y29567D01*
X30871Y29517D01*
X31000Y29500D01*
X31000Y29500D01*
X31750Y28750D01*
X31823Y28694D01*
X31909Y28659D01*
X32000Y28647D01*
X32000Y28647D01*
X32579D01*
X32660Y28585D01*
X32776Y28537D01*
X32900Y28520D01*
X33024Y28537D01*
X33140Y28585D01*
X33239Y28661D01*
X33315Y28760D01*
X33363Y28876D01*
X33380Y29000D01*
X33363Y29124D01*
X33315Y29240D01*
X33239Y29339D01*
X33140Y29415D01*
X33024Y29463D01*
X32900Y29480D01*
X32776Y29463D01*
X32660Y29415D01*
X32579Y29353D01*
X32146D01*
X32039Y29460D01*
X32055Y29508D01*
X32129Y29517D01*
X32250Y29567D01*
X32353Y29647D01*
X32433Y29750D01*
X32483Y29871D01*
X32500Y30000D01*
X32483Y30129D01*
X32433Y30250D01*
X32353Y30353D01*
X32250Y30433D01*
X32129Y30483D01*
X32000Y30500D01*
X31871Y30483D01*
X31750Y30433D01*
X31647Y30353D01*
X31567Y30250D01*
X31525Y30147D01*
X31475D01*
X31433Y30250D01*
X31353Y30353D01*
X31250Y30433D01*
X31129Y30483D01*
X31055Y30492D01*
X31039Y30540D01*
X31250Y30750D01*
X31306Y30823D01*
X31341Y30909D01*
X31353Y31000D01*
X31353Y31000D01*
Y32647D01*
X31353Y32647D01*
X31433Y32750D01*
X31475Y32853D01*
X31525D01*
X31567Y32750D01*
X31647Y32647D01*
X31750Y32567D01*
X31871Y32517D01*
X32000Y32500D01*
X32129Y32517D01*
X32250Y32567D01*
X32353Y32647D01*
X32433Y32750D01*
X32483Y32871D01*
X32500Y33000D01*
X32483Y33129D01*
X32433Y33250D01*
X32353Y33353D01*
X32250Y33433D01*
X32129Y33483D01*
X32000Y33500D01*
X31871Y33483D01*
X31750Y33433D01*
X31647Y33353D01*
X31567Y33250D01*
X31525Y33147D01*
X31475D01*
X31433Y33250D01*
X31353Y33353D01*
X31353Y33353D01*
Y33679D01*
X31415Y33760D01*
X31463Y33876D01*
X31475Y33963D01*
X31522Y33979D01*
X31750Y33750D01*
X31750Y33750D01*
X31823Y33694D01*
X31909Y33659D01*
X32000Y33647D01*
X32179D01*
X32260Y33585D01*
X32376Y33537D01*
X32500Y33520D01*
X32624Y33537D01*
X32740Y33585D01*
X32839Y33661D01*
X32915Y33760D01*
X32963Y33876D01*
X32980Y34000D01*
X32963Y34124D01*
X32915Y34240D01*
X32839Y34339D01*
X32740Y34415D01*
X32624Y34463D01*
X32500Y34480D01*
X32376Y34463D01*
X32260Y34415D01*
X32179Y34353D01*
X32146D01*
X31550Y34950D01*
X31477Y35006D01*
X31391Y35041D01*
X31300Y35053D01*
X30700D01*
X30609Y35041D01*
X30523Y35006D01*
X30450Y34950D01*
X29950Y34450D01*
X29894Y34377D01*
X29885Y34354D01*
X29837Y34341D01*
X29740Y34415D01*
X29624Y34463D01*
X29500Y34480D01*
X29376Y34463D01*
X29260Y34415D01*
X29161Y34339D01*
X29085Y34240D01*
X29037Y34124D01*
X29020Y34000D01*
X29037Y33876D01*
X29085Y33760D01*
X29161Y33661D01*
X29260Y33585D01*
X29376Y33537D01*
X29500Y33520D01*
X29624Y33537D01*
X29740Y33585D01*
X29802Y33632D01*
X29847Y33610D01*
Y33473D01*
X29750Y33433D01*
X29647Y33353D01*
X29567Y33250D01*
X29525Y33147D01*
X29475D01*
X29433Y33250D01*
X29353Y33353D01*
X29250Y33433D01*
X29129Y33483D01*
X29000Y33500D01*
X28871Y33483D01*
X28750Y33433D01*
X28647Y33353D01*
X28567Y33250D01*
X28517Y33129D01*
X28500Y33000D01*
X28517Y32871D01*
X28567Y32750D01*
X28546Y32708D01*
X27466D01*
Y33450D01*
X26534D01*
Y32708D01*
X25438D01*
X25403Y32753D01*
X25300Y32833D01*
X25179Y32883D01*
X25050Y32900D01*
X24921Y32883D01*
X24802Y32833D01*
X24774Y32875D01*
X28246Y36347D01*
X29700D01*
X29791Y36359D01*
X29877Y36394D01*
X29950Y36450D01*
X29950Y36450D01*
X29950Y36450D01*
X31023Y37523D01*
X31124Y37537D01*
X31240Y37585D01*
X31339Y37661D01*
X31415Y37760D01*
X31463Y37876D01*
X31480Y38000D01*
X31463Y38124D01*
X31415Y38240D01*
X31339Y38339D01*
X31240Y38415D01*
X31124Y38463D01*
X31000Y38480D01*
D02*
G37*
G36*
X25000Y37480D02*
X24876Y37463D01*
X24760Y37415D01*
X24661Y37339D01*
X24585Y37240D01*
X24537Y37124D01*
X24520Y37000D01*
X24537Y36876D01*
X24585Y36760D01*
X24661Y36661D01*
X24760Y36585D01*
X24876Y36537D01*
X25000Y36520D01*
X25124Y36537D01*
X25240Y36585D01*
X25339Y36661D01*
X25415Y36760D01*
X25463Y36876D01*
X25480Y37000D01*
X25463Y37124D01*
X25415Y37240D01*
X25339Y37339D01*
X25240Y37415D01*
X25124Y37463D01*
X25000Y37480D01*
D02*
G37*
G36*
X21000D02*
X20876Y37463D01*
X20760Y37415D01*
X20661Y37339D01*
X20585Y37240D01*
X20537Y37124D01*
X20520Y37000D01*
X20537Y36876D01*
X20585Y36760D01*
X20647Y36679D01*
Y35500D01*
X20659Y35409D01*
X20694Y35323D01*
X20750Y35250D01*
X20983Y35018D01*
X20981Y35000D01*
X20998Y34866D01*
X21050Y34740D01*
X21133Y34633D01*
X21240Y34550D01*
X21366Y34498D01*
X21500Y34481D01*
X21634Y34498D01*
X21760Y34550D01*
X21867Y34633D01*
X21950Y34740D01*
X22002Y34866D01*
X22019Y35000D01*
X22002Y35134D01*
X21950Y35260D01*
X21867Y35367D01*
X21760Y35450D01*
X21634Y35502D01*
X21500Y35519D01*
X21482Y35517D01*
X21353Y35646D01*
Y36679D01*
X21415Y36760D01*
X21463Y36876D01*
X21480Y37000D01*
X21463Y37124D01*
X21415Y37240D01*
X21339Y37339D01*
X21240Y37415D01*
X21124Y37463D01*
X21000Y37480D01*
D02*
G37*
G36*
X43000Y34480D02*
X42876Y34463D01*
X42760Y34415D01*
X42661Y34339D01*
X42585Y34240D01*
X42537Y34124D01*
X42520Y34000D01*
X42537Y33876D01*
X42585Y33760D01*
X42661Y33661D01*
X42760Y33585D01*
X42876Y33537D01*
X42889Y33535D01*
Y33485D01*
X42871Y33483D01*
X42750Y33433D01*
X42647Y33353D01*
X42567Y33250D01*
X42525Y33147D01*
X42475D01*
X42433Y33250D01*
X42353Y33353D01*
X42250Y33433D01*
X42129Y33483D01*
X42000Y33500D01*
X41871Y33483D01*
X41750Y33433D01*
X41647Y33353D01*
X41567Y33250D01*
X41525Y33147D01*
X41475D01*
X41433Y33250D01*
X41353Y33353D01*
X41250Y33433D01*
X41129Y33483D01*
X41000Y33500D01*
X40871Y33483D01*
X40750Y33433D01*
X40647Y33353D01*
X40567Y33250D01*
X40525Y33147D01*
X40475D01*
X40433Y33250D01*
X40353Y33353D01*
X40250Y33433D01*
X40129Y33483D01*
X40000Y33500D01*
X39871Y33483D01*
X39750Y33433D01*
X39647Y33353D01*
X39567Y33250D01*
X39517Y33129D01*
X39500Y33000D01*
X39517Y32871D01*
X39567Y32750D01*
X39647Y32647D01*
X39750Y32567D01*
X39871Y32517D01*
X40000Y32500D01*
X40129Y32517D01*
X40250Y32567D01*
X40353Y32647D01*
X40433Y32750D01*
X40475Y32853D01*
X40525D01*
X40567Y32750D01*
X40647Y32647D01*
X40750Y32567D01*
X40871Y32517D01*
X41000Y32500D01*
X41129Y32517D01*
X41250Y32567D01*
X41353Y32647D01*
X41433Y32750D01*
X41475Y32853D01*
X41525D01*
X41567Y32750D01*
X41647Y32647D01*
X41647Y32647D01*
Y32600D01*
X41647Y32600D01*
X41647D01*
X41659Y32509D01*
X41694Y32423D01*
X41750Y32350D01*
X44647Y29454D01*
Y28500D01*
X44647Y28500D01*
X44647D01*
X44659Y28409D01*
X44694Y28323D01*
X44750Y28250D01*
X47023Y25977D01*
X47037Y25876D01*
X47085Y25760D01*
X47161Y25661D01*
X47260Y25585D01*
X47376Y25537D01*
X47500Y25520D01*
X47624Y25537D01*
X47740Y25585D01*
X47839Y25661D01*
X47915Y25760D01*
X47963Y25876D01*
X47980Y26000D01*
X47963Y26124D01*
X47915Y26240D01*
X47839Y26339D01*
X47740Y26415D01*
X47624Y26463D01*
X47523Y26477D01*
X45353Y28646D01*
Y29600D01*
X45341Y29691D01*
X45306Y29777D01*
X45250Y29850D01*
X42396Y32703D01*
X42433Y32750D01*
X42475Y32853D01*
X42525D01*
X42567Y32750D01*
X42647Y32647D01*
X42750Y32567D01*
X42871Y32517D01*
X43000Y32500D01*
X43129Y32517D01*
X43250Y32567D01*
X43353Y32647D01*
X43433Y32750D01*
X43483Y32871D01*
X43500Y33000D01*
X43483Y33129D01*
X43433Y33250D01*
X43353Y33353D01*
X43250Y33433D01*
X43129Y33483D01*
X43111Y33485D01*
Y33535D01*
X43124Y33537D01*
X43240Y33585D01*
X43339Y33661D01*
X43415Y33760D01*
X43463Y33876D01*
X43480Y34000D01*
X43463Y34124D01*
X43415Y34240D01*
X43339Y34339D01*
X43240Y34415D01*
X43124Y34463D01*
X43000Y34480D01*
D02*
G37*
G36*
X51500Y37480D02*
X51376Y37463D01*
X51260Y37415D01*
X51161Y37339D01*
X51085Y37240D01*
X51037Y37124D01*
X51020Y37000D01*
X51037Y36876D01*
X51085Y36760D01*
X51161Y36661D01*
X51260Y36585D01*
X51347Y36549D01*
Y34846D01*
X51018Y34517D01*
X51000Y34519D01*
X50866Y34502D01*
X50740Y34450D01*
X50633Y34367D01*
X50550Y34260D01*
X50498Y34134D01*
X50481Y34000D01*
X50498Y33866D01*
X50550Y33740D01*
X50633Y33633D01*
X50740Y33550D01*
X50866Y33498D01*
X51000Y33481D01*
X51134Y33498D01*
X51260Y33550D01*
X51367Y33633D01*
X51450Y33740D01*
X51502Y33866D01*
X51519Y34000D01*
X51517Y34018D01*
X51950Y34450D01*
X51950Y34450D01*
X52006Y34523D01*
X52041Y34609D01*
X52053Y34700D01*
Y36800D01*
X52041Y36891D01*
X52006Y36977D01*
X51978Y37013D01*
X51963Y37124D01*
X51915Y37240D01*
X51839Y37339D01*
X51740Y37415D01*
X51624Y37463D01*
X51500Y37480D01*
D02*
G37*
%LPD*%
G36*
X37567Y29750D02*
X37647Y29647D01*
X37647Y29647D01*
Y28946D01*
X37399Y28698D01*
X37353Y28718D01*
Y29647D01*
X37353Y29647D01*
X37433Y29750D01*
X37475Y29853D01*
X37525D01*
X37567Y29750D01*
D02*
G37*
G36*
X30734Y28366D02*
Y27830D01*
X30688Y27811D01*
X29853Y28646D01*
Y28679D01*
X29915Y28760D01*
X29963Y28876D01*
X29980Y29000D01*
X29971Y29062D01*
X30016Y29084D01*
X30734Y28366D01*
D02*
G37*
D10*
X34000Y29000D02*
X34800Y29800D01*
Y33211D01*
X34011Y34000D02*
X34800Y33211D01*
X34000Y34000D02*
X34011D01*
X36000Y32000D02*
X37000Y33000D01*
X36000Y30000D02*
Y32000D01*
X35700Y38300D02*
X36500Y37500D01*
X34300Y38300D02*
X35700D01*
X34000Y38000D02*
X34300Y38300D01*
X45000Y28500D02*
X47500Y26000D01*
X45000Y28500D02*
Y29600D01*
X42000Y32600D02*
X45000Y29600D01*
X42000Y32600D02*
Y33000D01*
X29700Y36700D02*
X31000Y38000D01*
X28100Y36700D02*
X29700D01*
X24405Y33005D02*
X28100Y36700D01*
X24405Y32133D02*
Y33005D01*
Y32133D02*
X25050Y31487D01*
Y30600D02*
Y31487D01*
X25095Y32355D02*
X29267D01*
X25050Y32400D02*
X25095Y32355D01*
X29267D02*
X29913Y33000D01*
X30000D02*
X30200Y33200D01*
Y34200D01*
X30700Y34700D01*
X31300D01*
X32000Y34000D01*
X32500D01*
X30000Y30000D02*
X31000Y31000D01*
Y33000D01*
Y34000D01*
X29000Y37500D02*
X29500Y38000D01*
X28000Y37500D02*
X29000D01*
X21000Y35500D02*
X21500Y35000D01*
X21000Y35500D02*
Y37000D01*
X51000Y34000D02*
X51700Y34700D01*
Y36800D01*
X51500Y37000D02*
X51700Y36800D01*
X44800Y38200D02*
X45500Y37500D01*
X43200Y38200D02*
X44800D01*
X43000Y38000D02*
X43200Y38200D01*
X42000Y30000D02*
X43000Y29000D01*
X48500Y30500D02*
X49500D01*
X47500Y29500D02*
X48500Y30500D01*
X47000Y29500D02*
X47500D01*
X46500Y29970D02*
Y30400D01*
X45400Y31500D02*
X46500Y30400D01*
X44500Y31500D02*
X45400D01*
X48500D02*
X49500D01*
X51000Y26500D02*
X51500Y26000D01*
X51000Y26500D02*
Y28000D01*
X31000Y30000D02*
X32000Y29000D01*
X32900D01*
X22200Y30600D02*
X25050D01*
X21300Y31500D02*
X22200Y30600D01*
X31200Y27984D02*
Y28400D01*
X30000Y29600D02*
X31200Y28400D01*
X30000Y29600D02*
Y30000D01*
X37000Y28700D02*
Y30000D01*
X35600Y27300D02*
X37000Y28700D01*
X30700Y27300D02*
X35600D01*
X29500Y28500D02*
X30700Y27300D01*
X29500Y28500D02*
Y29000D01*
X44000Y25000D02*
X44500Y25500D01*
X43000Y25000D02*
X44000D01*
X36440Y25500D02*
X36500D01*
X35000Y25000D02*
X35500Y25500D01*
X34000Y25000D02*
X35000D01*
X20835Y26165D02*
X21000Y26000D01*
X20835Y26165D02*
Y28275D01*
X21500Y28940D01*
Y29000D01*
X29300Y24800D02*
X29500Y25000D01*
X27700Y24800D02*
X29300D01*
X27000Y25500D02*
X27700Y24800D01*
X38000Y28800D02*
Y30000D01*
X35900Y26700D02*
X38000Y28800D01*
X25700Y26700D02*
X35900D01*
X25000Y26000D02*
X25700Y26700D01*
D11*
X35500Y37500D02*
D03*
X36500D02*
D03*
X44500D02*
D03*
X45500D02*
D03*
X51000Y29000D02*
D03*
Y28000D02*
D03*
X28000Y25500D02*
D03*
X27000D02*
D03*
X21500Y28000D02*
D03*
Y29000D02*
D03*
X27000Y37500D02*
D03*
X28000D02*
D03*
X36500Y25500D02*
D03*
X35500D02*
D03*
X45500D02*
D03*
X44500D02*
D03*
X51000Y35000D02*
D03*
Y34000D02*
D03*
X21500D02*
D03*
Y35000D02*
D03*
D12*
X34000Y38000D02*
D03*
Y34000D02*
D03*
X32500D02*
D03*
Y38000D02*
D03*
X31000D02*
D03*
Y34000D02*
D03*
X29500Y38000D02*
D03*
Y34000D02*
D03*
X43000Y38000D02*
D03*
Y34000D02*
D03*
Y25000D02*
D03*
Y29000D02*
D03*
X32900Y25000D02*
D03*
Y29000D02*
D03*
X21000Y37000D02*
D03*
X25000D02*
D03*
X51500D02*
D03*
X47500D02*
D03*
X44500Y31500D02*
D03*
X48500D02*
D03*
X51500Y26000D02*
D03*
X47500D02*
D03*
X21000D02*
D03*
X25000D02*
D03*
X34000Y25000D02*
D03*
Y29000D02*
D03*
X29500Y25000D02*
D03*
Y29000D02*
D03*
D13*
X32000Y33000D02*
D03*
X31000D02*
D03*
X30000D02*
D03*
X29000D02*
D03*
X32000Y30000D02*
D03*
X31000D02*
D03*
X30000D02*
D03*
X49500Y31500D02*
D03*
Y32500D02*
D03*
D14*
X29000Y30000D02*
D03*
X49500Y30500D02*
D03*
D15*
X34000Y31016D02*
D03*
X27000D02*
D03*
X31200Y26016D02*
D03*
D16*
X34000Y32984D02*
D03*
X27000D02*
D03*
X31200Y27984D02*
D03*
D17*
X46000Y29500D02*
D03*
X47000D02*
D03*
D18*
X46500D02*
D03*
D19*
X21300Y31500D02*
D03*
X25050Y30600D02*
D03*
Y32400D02*
D03*
X37000Y30000D02*
D03*
X38000D02*
D03*
X39000D02*
D03*
X40000D02*
D03*
X41000D02*
D03*
X42000D02*
D03*
X43000D02*
D03*
X36000Y33000D02*
D03*
X37000D02*
D03*
X38000D02*
D03*
X39000D02*
D03*
X40000D02*
D03*
X41000D02*
D03*
X42000D02*
D03*
X43000D02*
D03*
D20*
X36000Y30000D02*
D03*
M02*
