M48
;Layer_Color=9474304
;FILE_FORMAT=2:4
INCH,LZ
;TYPE=PLATED
T1F00S00C0.0315
T2F00S00C0.0335
T3F00S00C0.0354
%
T01
X051Y028
Y029
X0455Y0255
X0445
X0365
X0355
X034Y031016
X0312Y027984
X0312Y026016
X028Y0255
X027
X027Y031016
X0215Y029
Y028
Y034
Y035
X027Y032984
X027Y0375
X028
X0355
X0365
X034Y032984
X0445Y0375
X0455
X051Y035
Y034
T02
X0475Y026
X0515
X043Y025
Y029
X034
X0329
Y025
X034
X0295
Y029
X025Y026
X021
Y037
X025
X0295Y038
X031
Y034
X0295
X0325
X034
Y038
X0325
X043
Y034
X0445Y0315
X0485
X0475Y037
X0515
T03
X047Y0295
X0495Y0305
X0465Y0295
X046
X043Y03
X042
X041
X04
X039
X038
X037
X036
X032
X031
X03
X029
X02505Y0306
Y0324
X029Y033
X03
X031
X0213Y0315
X032Y033
X036
X037
X038
X039
X04
X041
X042
X043
X0495Y0325
Y0315
M30
